<svg width="24" height="24" viewBox="0 0 24 24" fill="none" xmlns="http://www.w3.org/2000/svg">
  <path d="M12 2C6.477 2 2 6.477 2 12C2 16.42 4.865 20.335 8.839 21.489C9.339 21.579 9.521 21.272 9.521 21.008C9.521 20.766 9.512 19.951 9.507 19.142C6.726 19.743 6.14 17.96 6.14 17.96C5.685 16.81 5.029 16.5 5.029 16.5C4.121 15.88 5.097 15.892 5.097 15.892C6.101 15.965 6.629 16.927 6.629 16.927C7.521 18.375 8.97 17.909 9.539 17.69C9.631 17.11 9.889 16.7 10.175 16.498C7.954 16.183 5.62 15.31 5.62 11.5C5.62 10.394 6.01 9.49 6.649 8.787C6.546 8.536 6.203 7.5 6.747 6.15C6.747 6.15 7.586 5.879 9.496 7.165C10.295 6.95 11.15 6.842 12 6.838C12.85 6.842 13.705 6.95 14.504 7.165C16.414 5.88 17.253 6.15 17.253 6.15C17.797 7.5 17.454 8.536 17.351 8.787C17.99 9.49 18.38 10.394 18.38 11.5C18.38 15.322 16.035 16.183 13.808 16.493C14.171 16.793 14.494 17.397 14.494 18.315C14.494 19.719 14.481 20.818 14.481 21.008C14.481 21.275 14.66 21.586 15.168 21.488C19.138 20.333 22 16.418 22 12C22 6.477 17.523 2 12 2Z" fill="white"/>
</svg>

